<svg xmlns="http://www.w3.org/2000/svg" viewBox="0 0 360 900">
  <path fill="currentColor" d="M325.3 701.2c-9.5-24.7-21-48.2-32.9-71.8-18.7-37.2 11.8-75.2 7.2-113.2a56.4 56.4 0 0 0-22.7-37.7c-17.3-13-41.5-17-63.5-18l-5.2-307 3.6-5.2 1.7.3h3l4.8-.5 2-.6 2-.7 3-1.8 2.8-2.3 2-2.4 1.7-2.6 1.2-2.9.8-3 .4-3-.1-3.1-.5-3.1-1-3.1-1.3-2.6-1.7-2.5 1.6-2.3 1.3-2.5.9-2.7.6-2.7.2-2.9-.2-2.8-.5-2.8-1.2-3.5-1.5-2.6-1.3-1.9 1.6-2.3 1.3-2.5 1-2.7.6-2.8.2-2.8-.2-2.9-.5-2.8-.9-2.8-.9-1.9-1-1.7-1.2-1.7-1.4-1.5-2.7-2.3-3.1-1.8-2.4-.9 2.7-11.3s-2-3.4-6.4-7.4a45 45 0 0 0-13.3-8.4 55.8 55.8 0 0 0-13-3.9A73 73 0 0 0 150 29a47 47 0 0 0-12 9.3 26.2 26.2 0 0 0-3.6 4.7l2.8 11.3-2.5 1-3 1.7-2.8 2.3-1.4 1.6-1.2 1.6-1 1.7-1 1.9-.8 2.8-.6 2.8-.1 2.9.2 2.8.6 2.8 1 2.7 1.2 2.5 1.7 2.3-1.7 2.5-1.4 2.7-.9 2.8-.5 2.8-.2 2.8.3 2.9.5 2.7 1 2.7 1.2 2.5 1.6 2.3-1.7 2.5-1.3 2.6-1 3-.5 3.2v3l.3 3.2.8 3 1.2 2.8 1.7 2.6 2 2.4 2.8 2.3 3 1.8 2 .7 4 .9 3.4.3 3.3-.2.8-.1 3.6 5.2-5.2 307c-22 .9-46.2 4.9-63.5 18a56.4 56.4 0 0 0-22.7 37.6c-4.6 38 25.9 76 7.2 113.3a792.4 792.4 0 0 0-33 71.8c-16.2 42-13.5 91.2 12.6 128.6 13.9 19.8 37.5 31 60 37.9a270 270 0 0 0 145.6 0c22.6-6.8 46.2-18 60-37.9 26.1-37.5 28.8-86.6 12.5-128.7zM148.7 129s0 4-.7 5.3c-.3.6-2 .7-3.8.6-1.5-.1-3-.4-3.5-.7-1-.4-1.9-1-2.6-1.8a9.3 9.3 0 0 1-2.5-4.8c-.3-1.8 0-3.8.6-5.5.4-1 1-2 1.9-2.8a10 10 0 0 1 2.6-1.8c.6-.3 2.4-.7 4-.7 1.6-.1 3 0 3.3.6.7 1.3.6 5.3.6 5.3h4.4a1937.9 1937.9 0 0 0 1-19.6h-5.4s.1 4-.5 5.2c-.4.6-1.9.8-3.4.7-1.7 0-3.4-.4-4-.7-1-.5-1.8-1-2.6-1.8a9.2 9.2 0 0 1-2.6-5.6c-.1-1.6.1-3.2.7-4.7a8.8 8.8 0 0 1 4.5-4.6c.6-.3 2.2-.7 3.9-.8 1.6 0 3.1 0 3.5.7.6 1.2.5 5.2.5 5.2h5.6v-1.4c0-6-.2-12.3-.8-18.4h-4.8s.1 4-.5 5.3c-.4.6-2 .7-3.5.6a13 13 0 0 1-4-.7 9 9 0 0 1-2.5-1.8 9.4 9.4 0 0 1-2.6-5.4c-.1-1.7.1-3.4.7-4.9a8.9 8.9 0 0 1 4.5-4.7c.5-.2 2-.5 3.4-.6 1.8-.1 3.6 0 4 .6.6 1.2.5 5.3.5 5.3h4.1a156.6 156.6 0 0 0-5-25.2s7.7-11.2 32.3-11.2c24.6 0 32.3 11.2 32.3 11.2l-1.7 7c-1.5 6-2.6 12-3.3 18.2h4s0-4 .6-5.3c.4-.7 2.2-.7 4-.6 1.4.1 2.9.4 3.4.6 1 .5 1.8 1.1 2.6 1.8a9 9 0 0 1 1.9 3c.6 1.4.8 3 .7 4.6a9 9 0 0 1-5.2 7.4c-.6.3-2.3.6-3.9.7-1.6.1-3.1 0-3.5-.6-.6-1.3-.6-5.3-.6-5.3h-4.7c-.6 6.1-.8 12.3-.8 18.4v1.4h5.5s0-4 .6-5.2c.4-.6 2-.8 3.5-.7 1.6.1 3.3.5 4 .7.9.5 1.7 1.1 2.5 1.8.8.9 1.4 1.8 1.9 2.9 1.4 3.4.7 7.6-2 10.3-.7.7-1.5 1.3-2.5 1.8-.6.3-2.3.6-4 .7-1.5 0-3 0-3.4-.7-.6-1.2-.6-5.2-.6-5.2H206a286 286 0 0 0 1 19.6h4.4s0-4 .6-5.3c.4-.6 1.8-.7 3.3-.6 1.7 0 3.5.4 4.2.7a9 9 0 0 1 4.4 4.7c.7 1.6.9 3.6.5 5.4a9.1 9.1 0 0 1-5 6.6c-.5.3-2 .6-3.5.7-1.7.1-3.5 0-3.9-.6-.6-1.3-.5-5.3-.5-5.3h-4c0 2.6.2 4.6.2 4.6a47.7 47.7 0 0 0-11.4 14.6l.2 14.7h-32.7l.2-14.7s-4.5-9.2-11.5-14.6l.3-4.6h-4zm48.3 72.5.4 21.6h-34.8l.3-21.6H197zm-34-6.1.4-23.8h33.1l.4 23.8H163zm34.5 33.7.4 20H162l.3-20h35zm.4 26.2.4 18.4h-36.6l.3-18.4h36zm.5 24.5.3 17.6h-37.4l.3-17.6h36.8zm.4 23.7.2 15H161l.3-15h37.6zm.4 21.1.2 15h-38.9l.3-15h38.4zm.3 21.1.2 13h-39.5l.2-13h39.1zm.3 19 .2 12.1H160l.2-12h39.8zm.4 18.2.1 11.5h-40.7l.2-11.5h40.4zm.3 17.7.1 9.4h-41.3l.2-9.4h41zm.2 15.5.2 9.5H159l.2-9.5h41.5zm.3 15.6.2 8.6h-42.4l.2-8.6h42zm.2 13.8.2 8.7h-42.9l.2-8.7h42.5zm.3 13.5.1 7.8h-43.3l.2-7.8h43zm.2 12.7.1 7h-43.7l.2-7h43.4zm.2 11.8.1 6.3h-44v-6.3H202zm.2 11.1.1 6.5h-44.5l.2-6.5H202zm.2 11.3v7h-44.8l.2-7h44.6zM180 531.7c14.9 0 28.4 6 38.3 15.6h-1c-2.3 0-4.7.6-6.8 1.5l-7.5-4.1a48 48 0 1 0-7.8 87.8c.6-.2 1-.6 1-.6l.6 54.4h-4.5l-.5-45.7c-1.5.4-3.1.6-4.7.9l.2 44.8h-4.5l-.2-44.5a72.6 72.6 0 0 1-5.4 0l-.2 44.5h-4.5l.3-44.9-4.8-.8-.5 45.7h-4.4l.5-46.9-4.2-1.4-1 48.3H154l1.1-50.4a55.2 55.2 0 0 1 25-104.2zm18.7 28.4c1.7 1.2 3.2 2.5 4.6 4l.9 44.5a32.5 32.5 0 0 1-4.4 4l-1-52.5zm5.4-2.8-1.7-1.4a42.8 42.8 0 0 0-7.7-4.4 37.7 37.7 0 0 0-34.6 2.6 38.3 38.3 0 0 0-18.4 32.7 38.2 38.2 0 0 0 54.6 34.4v5.1l-.3.1a42.8 42.8 0 1 1 6.8-75.8l2.7 1.5a5.8 5.8 0 0 0-1.4 5.2zM187 618.7c-1.4.3-3 .5-4.5.6l-.3-65c1.5 0 3 .2 4.5.5l.3 63.9zm-9.3-64.5-.3 65.1c-1.5-.1-3-.3-4.5-.7l.4-63.8c1.4-.3 3-.5 4.4-.6zm-8.7 1.9-.7 61.1c-1.5-.5-3-1.2-4.4-2l.6-57.2 4.5-2zm27.1 59c-1.4.9-2.9 1.6-4.4 2.2L191 556c1.6.5 3 1.2 4.5 2l.6 57zm-35-55-1 52.5a30 30 0 0 1-4.4-4.1l1-44.5c1.3-1.4 2.8-2.7 4.4-3.8zm80.3 156.2-20-.2-13.5 5.3s-16.7 2.6-28 2.6-27.8-2.6-27.8-2.6l-13.5-5.3-20 .2V695h122.8v21.4zm-40.5-61c1.3 2.6 2.9 5.5 4.6 8.4l.5 22.5h-4.5l-.6-31zm72.2-4.8c-1.1 4-2.7 7.8-4.8 11.4a38 38 0 0 1-9.1 10.5c-5.1 4.1-11.9 6.2-18.7 6.5-7.1.2-14.3-1.6-20-5.5-2.8-2-5.9-6.1-8.7-10.7-2.5-4-4.8-8.4-6.6-11.8l-3-6.3v-22.1a34 34 0 0 0 15.3-16.4c1.5-3.3 2.5-6.8 3-10.6a55.3 55.3 0 0 0-2.4-27 35.6 35.6 0 0 0-8.2-12.5c1.9-1.8 5.1-2.9 7.6-2.9h.1c4 0 8.1 1 12.2 2.6a65.8 65.8 0 0 1 29 23.7 87 87 0 0 1 10.8 21.4 101 101 0 0 1 5.7 31c0 6.4-.6 12.7-2.2 18.7z" />
</svg>
